<?xml version="1.0" encoding="utf-8"?>
<!-- Generator: Adobe Illustrator 24.0.2, SVG Export Plug-In . SVG Version: 6.00 Build 0)  -->
<svg version="1.1" id="Capa_1" xmlns="http://www.w3.org/2000/svg" xmlns:xlink="http://www.w3.org/1999/xlink" x="0px" y="0px"
	 viewBox="0 0 595.28 841.89" style="enable-background:new 0 0 595.28 841.89;" xml:space="preserve">
<style type="text/css">
	.st0{fill:#3C3C3B;}
	.st1{fill:none;stroke:#000000;stroke-width:3;stroke-miterlimit:10;}
	.st2{fill:none;stroke:#000000;stroke-width:2;stroke-miterlimit:10;}
	.st3{fill:#FFFFFF;stroke:#F6F6F6;stroke-miterlimit:10;}
	.st4{fill:#FFFFFF;stroke:#F6F6F6;stroke-width:3;stroke-miterlimit:10;}
	.st5{fill:#FFFFFF;stroke:#F6F6F6;stroke-width:2;stroke-miterlimit:10;}
</style>
<g>
	<path class="st0" d="M59.2,720.52h-1.01c-6.29,0-12.15-1.64-17.58-4.92c-5.43-3.28-9.72-7.64-12.86-13.08
		c-3.14-5.44-4.71-11.23-4.71-17.36c0-9.66,3.51-17.97,10.53-24.93c7.02-6.96,15.41-10.44,25.18-10.44c6.26,0,12.22,1.57,17.86,4.69
		c0.45,0.25,0.73,0.73,0.73,1.24c0,1.09-1.18,1.76-2.12,1.21c-5.13-3-10.62-4.49-16.46-4.49c-8.97,0-16.66,3.21-23.07,9.62
		c-6.41,6.41-9.61,14.1-9.61,23.06c0,8.96,3.2,16.67,9.61,23.11c6.41,6.44,14.1,9.66,23.07,9.66c5.84,0,11.33-1.5,16.46-4.49
		c0.94-0.55,2.13,0.12,2.13,1.21v0.02c0,0.5-0.26,0.97-0.7,1.22C71.27,718.96,65.46,720.52,59.2,720.52z"/>
	<path class="st0" d="M91.52,675.06c-3.73,0-7.02,1.24-9.87,3.71c-2.85,2.47-4.27,5.35-4.27,8.62v27.77c0,0.02-0.02,0.04-0.04,0.04
		h-3.3c-0.02,0-0.04-0.02-0.04-0.04v-41.64c0-0.02,0.02-0.04,0.04-0.04h3.3c0.02,0,0.04,0.02,0.04,0.04v6.04
		c0,0.04,0.05,0.05,0.07,0.02c1.27-2.05,3.22-3.75,5.84-5.08c2.67-1.36,5.66-2.04,8.97-2.04c3.3,0,6.46,0.99,9.48,2.95
		c0.01,0.01,0.02,0.02,0.02,0.03v3.6c0,0.03-0.04,0.05-0.06,0.03C98.61,676.4,95.22,675.06,91.52,675.06z"/>
	<path class="st0" d="M106.66,663.38c-1.79,0-2.69-0.83-2.69-2.5c0-1.67,0.9-2.5,2.69-2.5c1.79,0,2.69,0.83,2.69,2.5
		C109.35,662.54,108.46,663.38,106.66,663.38z M108.15,673.57v41.63h-2.97v-41.63H108.15z"/>
	<path class="st0" d="M122.71,674.97c-1.61,0-3.03,0.53-4.26,1.58c-1.24,1.05-1.85,2.35-1.85,3.89c0,1.55,0.7,2.97,2.09,4.27
		c1.39,1.3,3.06,2.49,5.01,3.57c1.95,1.08,3.91,2.24,5.89,3.48c1.98,1.24,3.66,2.81,5.05,4.73c1.39,1.92,2.09,4.11,2.09,6.58
		c0,3.65-1.38,6.75-4.13,9.32c-2.75,2.57-6.07,3.85-9.97,3.85c-2.47,0-4.77-0.54-6.91-1.62c-2.13-1.08-3.69-2.52-4.68-4.31v-4.45
		c2.35,5.19,6.12,7.79,11.31,7.79c3.21,0,5.92-0.99,8.11-2.97c2.19-1.98,3.29-4.19,3.29-6.63c0-2.44-0.7-4.5-2.09-6.16
		s-3.08-3.09-5.05-4.27c-1.98-1.17-3.94-2.33-5.89-3.48c-1.95-1.14-3.62-2.53-5.01-4.17c-1.39-1.64-2.09-3.55-2.09-5.75
		c0-2.19,0.88-4.05,2.64-5.56c1.76-1.51,4.03-2.27,6.81-2.27c2.78,0,5.16,1.08,7.14,3.25v3.8
		C128.24,676.45,125.74,674.97,122.71,674.97z"/>
	<path class="st0" d="M218.39,658.04c2.71,0,4.76,0.31,6.17,0.93c1.41,0.62,2.65,1.31,3.74,2.07c0.65,0.38,1.18,0.66,1.58,0.85
		s0.8,0.28,1.18,0.28c0.87,0,1.46-1.19,1.79-3.57h1.87c-0.05,0.92-0.12,2.02-0.2,3.29c-0.08,1.27-0.14,2.95-0.16,5.04
		c-0.03,2.08-0.04,4.83-0.04,8.24h-1.87c-0.16-2.6-0.73-5.09-1.71-7.47c-0.97-2.38-2.4-4.33-4.26-5.85
		c-1.87-1.52-4.32-2.27-7.35-2.27c-2.87,0-5.24,0.87-7.11,2.6c-1.87,1.73-2.8,4.01-2.8,6.82c0,2.44,0.62,4.48,1.87,6.13
		c1.24,1.65,2.91,3.14,4.99,4.47c2.08,1.33,4.34,2.75,6.78,4.26c2.81,1.73,5.32,3.45,7.51,5.16c2.19,1.71,3.92,3.59,5.2,5.64
		c1.27,2.06,1.91,4.55,1.91,7.47c0,3.47-0.79,6.34-2.36,8.61c-1.57,2.27-3.65,3.98-6.25,5.12c-2.6,1.14-5.47,1.71-8.61,1.71
		c-2.87,0-5.14-0.32-6.82-0.97c-1.68-0.65-3.11-1.33-4.3-2.03c-1.19-0.76-2.11-1.14-2.76-1.14c-0.87,0-1.46,1.19-1.79,3.57h-1.87
		c0.11-1.14,0.17-2.48,0.2-4.02c0.03-1.54,0.05-3.56,0.08-6.05c0.03-2.49,0.04-5.63,0.04-9.42h1.87c0.22,3.25,0.83,6.28,1.83,9.1
		c1,2.82,2.54,5.08,4.63,6.78c2.08,1.71,4.86,2.56,8.32,2.56c2.65,0,5.08-0.85,7.27-2.56c2.19-1.71,3.29-4.45,3.29-8.24
		c0-3.3-1.17-6.04-3.49-8.2c-2.33-2.16-5.39-4.38-9.18-6.66c-2.55-1.57-4.93-3.17-7.15-4.79c-2.22-1.62-3.99-3.5-5.32-5.64
		c-1.33-2.14-1.99-4.72-1.99-7.76c0-3.19,0.72-5.83,2.15-7.92c1.43-2.08,3.32-3.63,5.64-4.63
		C213.25,658.54,215.74,658.04,218.39,658.04z"/>
	<path class="st0" d="M254.7,717c-3.52,0-6.08-0.88-7.67-2.64c-1.6-1.76-2.4-4.1-2.4-7.02c0-2.28,0.55-4.16,1.67-5.64
		c1.11-1.49,2.53-2.71,4.26-3.66c1.73-0.95,3.56-1.76,5.48-2.44c1.92-0.68,3.75-1.34,5.48-1.99c1.73-0.65,3.15-1.38,4.26-2.19
		c1.11-0.81,1.67-1.84,1.67-3.09v-5.04c0-2.27-0.34-4.01-1.02-5.2c-0.68-1.19-1.58-1.99-2.72-2.39c-1.14-0.41-2.41-0.61-3.82-0.61
		c-1.35,0-2.8,0.19-4.35,0.57c-1.54,0.38-2.77,1.16-3.69,2.36c1.03,0.22,1.92,0.76,2.68,1.62c0.76,0.87,1.14,1.98,1.14,3.33
		c0,1.35-0.43,2.42-1.3,3.21c-0.87,0.79-1.98,1.18-3.33,1.18c-1.57,0-2.72-0.5-3.45-1.5c-0.73-1-1.1-2.12-1.1-3.37
		c0-1.41,0.35-2.54,1.06-3.41c0.7-0.87,1.6-1.68,2.68-2.44c1.25-0.87,2.86-1.61,4.83-2.23c1.98-0.62,4.21-0.93,6.7-0.93
		c2.22,0,4.11,0.26,5.69,0.77c1.57,0.52,2.87,1.26,3.9,2.23c1.41,1.3,2.33,2.88,2.76,4.75c0.43,1.87,0.65,4.1,0.65,6.7v22.58
		c0,1.3,0.19,2.26,0.57,2.88c0.38,0.62,1.03,0.94,1.95,0.94c0.76,0,1.42-0.16,1.99-0.49s1.12-0.73,1.67-1.22l0.89,1.38
		c-1.14,0.87-2.22,1.58-3.25,2.15c-1.03,0.57-2.41,0.85-4.14,0.85c-2.82,0-4.68-0.73-5.6-2.19c-0.92-1.46-1.38-3.14-1.38-5.04
		c-1.73,2.87-3.7,4.79-5.89,5.77C259.37,716.51,257.08,717,254.7,717z M258.27,713.75c1.63,0,3.22-0.47,4.79-1.42
		c1.57-0.95,3.03-2.53,4.39-4.75v-15.92c-0.81,1.19-2.07,2.14-3.78,2.84c-1.71,0.7-3.47,1.48-5.28,2.31
		c-1.81,0.84-3.37,1.98-4.67,3.41c-1.3,1.44-1.95,3.48-1.95,6.13c0,2.49,0.62,4.34,1.87,5.56
		C254.89,713.14,256.43,713.75,258.27,713.75z"/>
	<path class="st0" d="M311.54,673.47c2.06,0,3.78,0.27,5.16,0.81c1.38,0.54,2.53,1.3,3.45,2.27c1.03,1.08,1.76,2.44,2.19,4.06
		c0.43,1.62,0.65,3.82,0.65,6.58v21.68c0,2.27,0.47,3.82,1.42,4.63s2.53,1.22,4.75,1.22v1.71c-0.92-0.05-2.33-0.12-4.22-0.2
		c-1.9-0.08-3.74-0.12-5.52-0.12c-1.79,0-3.53,0.04-5.24,0.12c-1.71,0.08-2.99,0.15-3.86,0.2v-1.71c1.95,0,3.33-0.41,4.14-1.22
		s1.22-2.36,1.22-4.63v-23.47c0-1.68-0.14-3.22-0.41-4.63c-0.27-1.41-0.88-2.54-1.83-3.41c-0.95-0.87-2.4-1.3-4.34-1.3
		c-3.41,0-6.16,1.42-8.24,4.26c-2.08,2.84-3.13,6.35-3.13,10.52v18.03c0,2.27,0.41,3.82,1.22,4.63s2.19,1.22,4.14,1.22v1.71
		c-0.87-0.05-2.15-0.12-3.86-0.2c-1.71-0.08-3.45-0.12-5.24-0.12s-3.63,0.04-5.52,0.12c-1.9,0.08-3.3,0.15-4.22,0.2v-1.71
		c2.22,0,3.8-0.41,4.75-1.22s1.42-2.36,1.42-4.63v-25.42c0-2.44-0.43-4.24-1.3-5.4c-0.87-1.16-2.49-1.75-4.87-1.75v-1.71
		c1.73,0.16,3.41,0.24,5.04,0.24c1.57,0,3.07-0.09,4.51-0.28c1.43-0.19,2.75-0.47,3.94-0.85v9.58c1.41-3.68,3.37-6.24,5.89-7.67
		C306.14,674.19,308.78,673.47,311.54,673.47z"/>
	<path class="st0" d="M347.28,673.47c2.17,0,4.01,0.35,5.52,1.06c1.51,0.7,2.63,1.35,3.33,1.95c1.79,1.46,2.87,0.49,3.25-2.92h1.87
		c-0.11,1.52-0.19,3.32-0.24,5.4c-0.05,2.08-0.08,4.89-0.08,8.41h-1.87c-0.32-2-0.88-3.95-1.66-5.85c-0.79-1.89-1.94-3.45-3.45-4.67
		c-1.52-1.22-3.49-1.83-5.93-1.83c-1.9,0-3.48,0.53-4.75,1.58c-1.27,1.06-1.91,2.61-1.91,4.67c0,1.63,0.49,3.02,1.46,4.18
		c0.97,1.17,2.25,2.25,3.82,3.25c1.57,1,3.27,2.1,5.12,3.29c3.09,2,5.71,4.03,7.88,6.09c2.16,2.06,3.25,4.77,3.25,8.12
		c0,2.49-0.65,4.57-1.95,6.25c-1.3,1.68-2.99,2.95-5.08,3.82c-2.08,0.87-4.37,1.3-6.86,1.3c-1.19,0-2.31-0.1-3.37-0.29
		s-2.07-0.47-3.05-0.85c-0.54-0.27-1.1-0.6-1.67-0.97s-1.12-0.79-1.67-1.22c-0.54-0.43-1.03-0.42-1.46,0.04
		c-0.43,0.46-0.76,1.37-0.97,2.72h-1.87c0.11-1.73,0.19-3.84,0.24-6.34c0.05-2.49,0.08-5.79,0.08-9.91h1.87
		c0.38,3.03,0.92,5.68,1.63,7.96c0.7,2.27,1.81,4.05,3.33,5.32c1.52,1.27,3.63,1.91,6.33,1.91c1.62,0,3.23-0.57,4.83-1.71
		c1.6-1.14,2.4-3.14,2.4-6.01c0-2.38-0.87-4.33-2.6-5.85c-1.73-1.52-3.93-3.11-6.58-4.79c-1.95-1.25-3.78-2.49-5.48-3.74
		c-1.71-1.24-3.09-2.65-4.14-4.22s-1.58-3.46-1.58-5.69c0-2.44,0.55-4.43,1.66-5.97c1.11-1.54,2.58-2.68,4.43-3.41
		C343.19,673.84,345.17,673.47,347.28,673.47z"/>
	<path class="st0" d="M379.93,717c-3.52,0-6.08-0.88-7.67-2.64c-1.6-1.76-2.4-4.1-2.4-7.02c0-2.28,0.55-4.16,1.67-5.64
		c1.11-1.49,2.53-2.71,4.26-3.66c1.73-0.95,3.56-1.76,5.48-2.44c1.92-0.68,3.75-1.34,5.48-1.99c1.73-0.65,3.15-1.38,4.26-2.19
		c1.11-0.81,1.67-1.84,1.67-3.09v-5.04c0-2.27-0.34-4.01-1.01-5.2c-0.68-1.19-1.58-1.99-2.72-2.39c-1.14-0.41-2.41-0.61-3.82-0.61
		c-1.35,0-2.8,0.19-4.34,0.57s-2.78,1.16-3.7,2.36c1.03,0.22,1.92,0.76,2.68,1.62c0.76,0.87,1.14,1.98,1.14,3.33
		c0,1.35-0.43,2.42-1.3,3.21c-0.87,0.79-1.98,1.18-3.33,1.18c-1.57,0-2.72-0.5-3.45-1.5c-0.73-1-1.1-2.12-1.1-3.37
		c0-1.41,0.35-2.54,1.06-3.41c0.7-0.87,1.6-1.68,2.68-2.44c1.24-0.87,2.85-1.61,4.83-2.23c1.98-0.62,4.21-0.93,6.7-0.93
		c2.22,0,4.11,0.26,5.68,0.77c1.57,0.52,2.87,1.26,3.9,2.23c1.41,1.3,2.33,2.88,2.76,4.75c0.43,1.87,0.65,4.1,0.65,6.7v22.58
		c0,1.3,0.19,2.26,0.57,2.88c0.38,0.62,1.03,0.94,1.95,0.94c0.76,0,1.42-0.16,1.99-0.49s1.12-0.73,1.67-1.22l0.89,1.38
		c-1.14,0.87-2.22,1.58-3.25,2.15c-1.03,0.57-2.41,0.85-4.14,0.85c-2.82,0-4.68-0.73-5.6-2.19c-0.92-1.46-1.38-3.14-1.38-5.04
		c-1.73,2.87-3.7,4.79-5.89,5.77C384.59,716.51,382.31,717,379.93,717z M383.5,713.75c1.62,0,3.22-0.47,4.79-1.42
		s3.03-2.53,4.39-4.75v-15.92c-0.81,1.19-2.07,2.14-3.78,2.84c-1.71,0.7-3.47,1.48-5.28,2.31c-1.81,0.84-3.37,1.98-4.67,3.41
		c-1.3,1.44-1.95,3.48-1.95,6.13c0,2.49,0.62,4.34,1.87,5.56C380.11,713.14,381.66,713.75,383.5,713.75z"/>
	<path class="st0" d="M422.4,652.76v56.12c0,2.27,0.47,3.82,1.42,4.63c0.95,0.81,2.53,1.22,4.75,1.22v1.71
		c-0.92-0.05-2.31-0.12-4.18-0.2c-1.87-0.08-3.75-0.12-5.64-0.12c-1.84,0-3.71,0.04-5.6,0.12c-1.9,0.08-3.3,0.15-4.22,0.2v-1.71
		c2.22,0,3.8-0.41,4.75-1.22c0.95-0.81,1.42-2.36,1.42-4.63v-46.37c0-2.44-0.43-4.24-1.3-5.4c-0.87-1.16-2.49-1.75-4.87-1.75v-1.71
		c1.73,0.16,3.41,0.24,5.04,0.24c1.57,0,3.07-0.09,4.51-0.28C419.89,653.43,421.21,653.14,422.4,652.76z"/>
	<path class="st0" d="M451.8,673.47c3.46,0,6.58,0.76,9.34,2.27c2.76,1.52,4.97,3.9,6.62,7.15c1.65,3.25,2.48,7.47,2.48,12.67
		c0,5.2-0.83,9.41-2.48,12.63c-1.65,3.22-3.86,5.59-6.62,7.11c-2.76,1.51-5.88,2.27-9.34,2.27c-3.41,0-6.51-0.76-9.3-2.27
		c-2.79-1.52-5.01-3.88-6.66-7.11c-1.65-3.22-2.48-7.43-2.48-12.63c0-5.2,0.82-9.42,2.48-12.67c1.65-3.25,3.87-5.63,6.66-7.15
		C445.29,674.23,448.39,673.47,451.8,673.47z M451.8,675.1c-3.09,0-5.62,1.6-7.59,4.79c-1.98,3.2-2.96,8.42-2.96,15.67
		c0,7.26,0.99,12.47,2.96,15.63c1.98,3.17,4.51,4.75,7.59,4.75c3.09,0,5.62-1.58,7.59-4.75c1.98-3.17,2.96-8.38,2.96-15.63
		c0-7.25-0.99-12.48-2.96-15.67C457.41,676.69,454.88,675.1,451.8,675.1z"/>
	<path class="st0" d="M503.69,673.47c2.06,0,3.78,0.27,5.16,0.81c1.38,0.54,2.53,1.3,3.45,2.27c1.03,1.08,1.76,2.44,2.19,4.06
		c0.43,1.62,0.65,3.82,0.65,6.58v21.68c0,2.27,0.47,3.82,1.42,4.63c0.95,0.81,2.53,1.22,4.75,1.22v1.71
		c-0.92-0.05-2.33-0.12-4.22-0.2c-1.9-0.08-3.74-0.12-5.52-0.12c-1.79,0-3.53,0.04-5.24,0.12c-1.71,0.08-2.99,0.15-3.86,0.2v-1.71
		c1.95,0,3.33-0.41,4.14-1.22c0.81-0.81,1.22-2.36,1.22-4.63v-23.47c0-1.68-0.14-3.22-0.41-4.63c-0.27-1.41-0.88-2.54-1.83-3.41
		c-0.95-0.87-2.4-1.3-4.35-1.3c-3.41,0-6.16,1.42-8.24,4.26c-2.08,2.84-3.13,6.35-3.13,10.52v18.03c0,2.27,0.41,3.82,1.22,4.63
		c0.81,0.81,2.19,1.22,4.14,1.22v1.71c-0.87-0.05-2.15-0.12-3.86-0.2c-1.71-0.08-3.45-0.12-5.24-0.12c-1.79,0-3.63,0.04-5.52,0.12
		c-1.9,0.08-3.3,0.15-4.22,0.2v-1.71c2.22,0,3.8-0.41,4.75-1.22c0.95-0.81,1.42-2.36,1.42-4.63v-25.42c0-2.44-0.43-4.24-1.3-5.4
		c-0.87-1.16-2.49-1.75-4.87-1.75v-1.71c1.73,0.16,3.41,0.24,5.04,0.24c1.57,0,3.07-0.09,4.51-0.28c1.43-0.19,2.75-0.47,3.94-0.85
		v9.58c1.41-3.68,3.37-6.24,5.89-7.67C498.29,674.19,500.93,673.47,503.69,673.47z"/>
	<path class="st0" d="M538.37,673.72v35.17c0,2.27,0.47,3.82,1.42,4.63c0.95,0.81,2.53,1.22,4.75,1.22v1.71
		c-0.92-0.05-2.31-0.12-4.18-0.2c-1.87-0.08-3.75-0.12-5.64-0.12c-1.84,0-3.71,0.04-5.6,0.12c-1.9,0.08-3.3,0.15-4.22,0.2v-1.71
		c2.22,0,3.8-0.41,4.75-1.22c0.95-0.81,1.42-2.36,1.42-4.63v-25.42c0-2.44-0.43-4.24-1.3-5.4c-0.87-1.16-2.49-1.75-4.87-1.75v-1.71
		c1.73,0.16,3.41,0.24,5.04,0.24c1.57,0,3.07-0.09,4.51-0.28C535.86,674.38,537.18,674.09,538.37,673.72z M534.15,654.3
		c1.41,0,2.63,0.52,3.66,1.54c1.03,1.03,1.54,2.25,1.54,3.65c0,1.41-0.52,2.63-1.54,3.66c-1.03,1.03-2.25,1.54-3.66,1.54
		c-1.41,0-2.63-0.51-3.65-1.54c-1.03-1.03-1.54-2.25-1.54-3.66c0-1.41,0.51-2.63,1.54-3.65C531.52,654.82,532.74,654.3,534.15,654.3
		z"/>
	<line class="st1" x1="154.96" y1="669.03" x2="154.96" y2="720.41"/>
	<line class="st2" x1="160.78" y1="691.72" x2="176.95" y2="691.72"/>
	<circle class="st0" cx="182.12" cy="712.15" r="5.17"/>
	<line class="st1" x1="181.55" y1="650.91" x2="181.55" y2="702.29"/>
</g>
<g>
	<path class="st3" d="M79.76,456.31h-1.01c-6.29,0-12.15-1.64-17.58-4.92c-5.43-3.28-9.72-7.64-12.86-13.08
		c-3.14-5.44-4.71-11.23-4.71-17.36c0-9.66,3.51-17.97,10.53-24.93c7.02-6.96,15.41-10.44,25.18-10.44c6.26,0,12.22,1.57,17.86,4.69
		c0.45,0.25,0.73,0.73,0.73,1.24c0,1.09-1.18,1.76-2.12,1.21c-5.13-3-10.62-4.49-16.46-4.49c-8.97,0-16.66,3.21-23.07,9.62
		c-6.41,6.41-9.61,14.1-9.61,23.06c0,8.96,3.2,16.67,9.61,23.11c6.41,6.44,14.1,9.66,23.07,9.66c5.84,0,11.33-1.5,16.46-4.49
		c0.94-0.55,2.13,0.12,2.13,1.21v0.02c0,0.5-0.26,0.97-0.7,1.22C91.83,454.75,86.02,456.31,79.76,456.31z"/>
	<path class="st3" d="M112.08,410.85c-3.73,0-7.02,1.24-9.87,3.71c-2.85,2.47-4.27,5.35-4.27,8.62v27.77c0,0.02-0.02,0.04-0.04,0.04
		h-3.3c-0.02,0-0.04-0.02-0.04-0.04v-41.64c0-0.02,0.02-0.04,0.04-0.04h3.3c0.02,0,0.04,0.02,0.04,0.04v6.04
		c0,0.04,0.05,0.05,0.07,0.02c1.27-2.05,3.22-3.75,5.84-5.08c2.67-1.36,5.66-2.04,8.97-2.04c3.3,0,6.46,0.99,9.48,2.95
		c0.01,0.01,0.02,0.02,0.02,0.03v3.6c0,0.03-0.04,0.05-0.06,0.03C119.18,412.19,115.79,410.85,112.08,410.85z"/>
	<path class="st3" d="M127.23,399.16c-1.79,0-2.69-0.83-2.69-2.5c0-1.67,0.9-2.5,2.69-2.5c1.79,0,2.69,0.83,2.69,2.5
		C129.92,398.33,129.02,399.16,127.23,399.16z M128.71,409.36v41.63h-2.97v-41.63H128.71z"/>
	<path class="st3" d="M143.28,410.75c-1.61,0-3.03,0.53-4.26,1.58c-1.24,1.05-1.85,2.35-1.85,3.89c0,1.55,0.7,2.97,2.09,4.27
		c1.39,1.3,3.06,2.49,5.01,3.57c1.95,1.08,3.91,2.24,5.89,3.48c1.98,1.24,3.66,2.81,5.05,4.73c1.39,1.92,2.09,4.11,2.09,6.58
		c0,3.65-1.38,6.75-4.13,9.32c-2.75,2.57-6.07,3.85-9.97,3.85c-2.47,0-4.77-0.54-6.91-1.62c-2.13-1.08-3.69-2.52-4.68-4.31v-4.45
		c2.35,5.19,6.12,7.79,11.31,7.79c3.21,0,5.92-0.99,8.11-2.97c2.19-1.98,3.29-4.19,3.29-6.63c0-2.44-0.7-4.5-2.09-6.16
		c-1.39-1.67-3.08-3.09-5.05-4.27c-1.98-1.17-3.94-2.33-5.89-3.48c-1.95-1.14-3.62-2.53-5.01-4.17c-1.39-1.64-2.09-3.55-2.09-5.75
		c0-2.19,0.88-4.05,2.64-5.56c1.76-1.51,4.03-2.27,6.81-2.27c2.78,0,5.16,1.08,7.14,3.25v3.8
		C148.81,412.24,146.31,410.75,143.28,410.75z"/>
	<path class="st3" d="M238.96,393.83c2.71,0,4.76,0.31,6.17,0.93c1.41,0.62,2.65,1.31,3.74,2.07c0.65,0.38,1.18,0.66,1.58,0.85
		s0.8,0.28,1.18,0.28c0.87,0,1.46-1.19,1.79-3.57h1.87c-0.05,0.92-0.12,2.02-0.2,3.29c-0.08,1.27-0.14,2.95-0.16,5.04
		c-0.03,2.08-0.04,4.83-0.04,8.24h-1.87c-0.16-2.6-0.73-5.09-1.71-7.47c-0.97-2.38-2.4-4.33-4.26-5.85
		c-1.87-1.52-4.32-2.27-7.35-2.27c-2.87,0-5.24,0.87-7.11,2.6c-1.87,1.73-2.8,4.01-2.8,6.82c0,2.44,0.62,4.48,1.87,6.13
		c1.24,1.65,2.91,3.14,4.99,4.47c2.08,1.33,4.34,2.75,6.78,4.26c2.81,1.73,5.32,3.45,7.51,5.16c2.19,1.71,3.92,3.59,5.2,5.64
		c1.27,2.06,1.91,4.55,1.91,7.47c0,3.47-0.79,6.34-2.36,8.61c-1.57,2.27-3.65,3.98-6.25,5.12c-2.6,1.14-5.47,1.71-8.61,1.71
		c-2.87,0-5.14-0.32-6.82-0.97c-1.68-0.65-3.11-1.33-4.3-2.03c-1.19-0.76-2.11-1.14-2.76-1.14c-0.87,0-1.46,1.19-1.79,3.57h-1.87
		c0.11-1.14,0.17-2.48,0.2-4.02c0.03-1.54,0.05-3.56,0.08-6.05c0.03-2.49,0.04-5.63,0.04-9.42h1.87c0.22,3.25,0.83,6.28,1.83,9.1
		c1,2.82,2.54,5.08,4.63,6.78c2.08,1.71,4.86,2.56,8.32,2.56c2.65,0,5.08-0.85,7.27-2.56c2.19-1.71,3.29-4.45,3.29-8.24
		c0-3.3-1.17-6.04-3.49-8.2c-2.33-2.16-5.39-4.38-9.18-6.66c-2.55-1.57-4.93-3.17-7.15-4.79c-2.22-1.62-3.99-3.5-5.32-5.64
		c-1.33-2.14-1.99-4.72-1.99-7.76c0-3.19,0.72-5.83,2.15-7.92c1.43-2.08,3.32-3.63,5.64-4.63
		C233.82,394.33,236.31,393.83,238.96,393.83z"/>
	<path class="st3" d="M275.26,452.79c-3.52,0-6.08-0.88-7.67-2.64c-1.6-1.76-2.4-4.1-2.4-7.02c0-2.28,0.55-4.16,1.67-5.64
		c1.11-1.49,2.53-2.71,4.26-3.66c1.73-0.95,3.56-1.76,5.48-2.44c1.92-0.68,3.75-1.34,5.48-1.99c1.73-0.65,3.15-1.38,4.26-2.19
		c1.11-0.81,1.67-1.84,1.67-3.09v-5.04c0-2.27-0.34-4.01-1.02-5.2c-0.68-1.19-1.58-1.99-2.72-2.39c-1.14-0.41-2.41-0.61-3.82-0.61
		c-1.35,0-2.8,0.19-4.35,0.57c-1.54,0.38-2.77,1.16-3.69,2.36c1.03,0.22,1.92,0.76,2.68,1.62c0.76,0.87,1.14,1.98,1.14,3.33
		c0,1.35-0.43,2.42-1.3,3.21c-0.87,0.79-1.98,1.18-3.33,1.18c-1.57,0-2.72-0.5-3.45-1.5c-0.73-1-1.1-2.12-1.1-3.37
		c0-1.41,0.35-2.54,1.06-3.41c0.7-0.87,1.6-1.68,2.68-2.44c1.25-0.87,2.86-1.61,4.83-2.23c1.98-0.62,4.21-0.93,6.7-0.93
		c2.22,0,4.11,0.26,5.69,0.77c1.57,0.52,2.87,1.26,3.9,2.23c1.41,1.3,2.33,2.88,2.76,4.75c0.43,1.87,0.65,4.1,0.65,6.7v22.58
		c0,1.3,0.19,2.26,0.57,2.88c0.38,0.62,1.03,0.94,1.95,0.94c0.76,0,1.42-0.16,1.99-0.49s1.12-0.73,1.67-1.22l0.89,1.38
		c-1.14,0.87-2.22,1.58-3.25,2.15c-1.03,0.57-2.41,0.85-4.14,0.85c-2.82,0-4.68-0.73-5.6-2.19c-0.92-1.46-1.38-3.14-1.38-5.04
		c-1.73,2.87-3.7,4.79-5.89,5.77C279.93,452.3,277.64,452.79,275.26,452.79z M278.83,449.54c1.63,0,3.22-0.47,4.79-1.42
		c1.57-0.95,3.03-2.53,4.39-4.75v-15.92c-0.81,1.19-2.07,2.14-3.78,2.84c-1.71,0.7-3.47,1.48-5.28,2.31
		c-1.81,0.84-3.37,1.98-4.67,3.41c-1.3,1.44-1.95,3.48-1.95,6.13c0,2.49,0.62,4.34,1.87,5.56
		C275.45,448.93,276.99,449.54,278.83,449.54z"/>
	<path class="st3" d="M332.11,409.26c2.06,0,3.78,0.27,5.16,0.81c1.38,0.54,2.53,1.3,3.45,2.27c1.03,1.08,1.76,2.44,2.19,4.06
		c0.43,1.62,0.65,3.82,0.65,6.58v21.68c0,2.27,0.47,3.82,1.42,4.63s2.53,1.22,4.75,1.22v1.71c-0.92-0.05-2.33-0.12-4.22-0.2
		c-1.9-0.08-3.74-0.12-5.52-0.12c-1.79,0-3.53,0.04-5.24,0.12c-1.71,0.08-2.99,0.15-3.86,0.2v-1.71c1.95,0,3.33-0.41,4.14-1.22
		s1.22-2.36,1.22-4.63V421.2c0-1.68-0.14-3.22-0.41-4.63c-0.27-1.41-0.88-2.54-1.83-3.41c-0.95-0.87-2.4-1.3-4.34-1.3
		c-3.41,0-6.16,1.42-8.24,4.26c-2.08,2.84-3.13,6.35-3.13,10.52v18.03c0,2.27,0.41,3.82,1.22,4.63s2.19,1.22,4.14,1.22v1.71
		c-0.87-0.05-2.15-0.12-3.86-0.2c-1.71-0.08-3.45-0.12-5.24-0.12s-3.63,0.04-5.52,0.12c-1.9,0.08-3.3,0.15-4.22,0.2v-1.71
		c2.22,0,3.8-0.41,4.75-1.22s1.42-2.36,1.42-4.63v-25.42c0-2.44-0.43-4.24-1.3-5.4c-0.87-1.16-2.49-1.75-4.87-1.75v-1.71
		c1.73,0.16,3.41,0.24,5.04,0.24c1.57,0,3.07-0.09,4.51-0.28c1.43-0.19,2.75-0.47,3.94-0.85v9.58c1.41-3.68,3.37-6.24,5.89-7.67
		C326.71,409.98,329.35,409.26,332.11,409.26z"/>
	<path class="st3" d="M367.84,409.26c2.17,0,4.01,0.35,5.52,1.06c1.51,0.7,2.63,1.35,3.33,1.95c1.79,1.46,2.87,0.49,3.25-2.92h1.87
		c-0.11,1.52-0.19,3.32-0.24,5.4c-0.05,2.08-0.08,4.89-0.08,8.41h-1.87c-0.32-2-0.88-3.95-1.66-5.85c-0.79-1.89-1.94-3.45-3.45-4.67
		c-1.52-1.22-3.49-1.83-5.93-1.83c-1.9,0-3.48,0.53-4.75,1.58c-1.27,1.06-1.91,2.61-1.91,4.67c0,1.63,0.49,3.02,1.46,4.18
		c0.97,1.17,2.25,2.25,3.82,3.25c1.57,1,3.27,2.1,5.12,3.29c3.09,2,5.71,4.03,7.88,6.09c2.16,2.06,3.25,4.77,3.25,8.12
		c0,2.49-0.65,4.57-1.95,6.25c-1.3,1.68-2.99,2.95-5.08,3.82c-2.08,0.87-4.37,1.3-6.86,1.3c-1.19,0-2.31-0.1-3.37-0.29
		s-2.07-0.47-3.05-0.85c-0.54-0.27-1.1-0.6-1.67-0.97s-1.12-0.79-1.67-1.22c-0.54-0.43-1.03-0.42-1.46,0.04
		c-0.43,0.46-0.76,1.37-0.97,2.72h-1.87c0.11-1.73,0.19-3.84,0.24-6.34c0.05-2.49,0.08-5.79,0.08-9.91h1.87
		c0.38,3.03,0.92,5.68,1.63,7.96c0.7,2.27,1.81,4.05,3.33,5.32c1.52,1.27,3.63,1.91,6.33,1.91c1.62,0,3.23-0.57,4.83-1.71
		c1.6-1.14,2.4-3.14,2.4-6.01c0-2.38-0.87-4.33-2.6-5.85c-1.73-1.52-3.93-3.11-6.58-4.79c-1.95-1.25-3.78-2.49-5.48-3.74
		c-1.71-1.24-3.09-2.65-4.14-4.22s-1.58-3.46-1.58-5.69c0-2.44,0.55-4.43,1.66-5.97c1.11-1.54,2.58-2.68,4.43-3.41
		C363.75,409.62,365.73,409.26,367.84,409.26z"/>
	<path class="st3" d="M400.49,452.79c-3.52,0-6.08-0.88-7.67-2.64c-1.6-1.76-2.4-4.1-2.4-7.02c0-2.28,0.55-4.16,1.67-5.64
		c1.11-1.49,2.53-2.71,4.26-3.66c1.73-0.95,3.56-1.76,5.48-2.44c1.92-0.68,3.75-1.34,5.48-1.99c1.73-0.65,3.15-1.38,4.26-2.19
		c1.11-0.81,1.67-1.84,1.67-3.09v-5.04c0-2.27-0.34-4.01-1.01-5.2c-0.68-1.19-1.58-1.99-2.72-2.39c-1.14-0.41-2.41-0.61-3.82-0.61
		c-1.35,0-2.8,0.19-4.34,0.57s-2.78,1.16-3.7,2.36c1.03,0.22,1.92,0.76,2.68,1.62c0.76,0.87,1.14,1.98,1.14,3.33
		c0,1.35-0.43,2.42-1.3,3.21c-0.87,0.79-1.98,1.18-3.33,1.18c-1.57,0-2.72-0.5-3.45-1.5c-0.73-1-1.1-2.12-1.1-3.37
		c0-1.41,0.35-2.54,1.06-3.41c0.7-0.87,1.6-1.68,2.68-2.44c1.24-0.87,2.85-1.61,4.83-2.23c1.98-0.62,4.21-0.93,6.7-0.93
		c2.22,0,4.11,0.26,5.68,0.77c1.57,0.52,2.87,1.26,3.9,2.23c1.41,1.3,2.33,2.88,2.76,4.75c0.43,1.87,0.65,4.1,0.65,6.7v22.58
		c0,1.3,0.19,2.26,0.57,2.88c0.38,0.62,1.03,0.94,1.95,0.94c0.76,0,1.42-0.16,1.99-0.49s1.12-0.73,1.67-1.22l0.89,1.38
		c-1.14,0.87-2.22,1.58-3.25,2.15c-1.03,0.57-2.41,0.85-4.14,0.85c-2.82,0-4.68-0.73-5.6-2.19c-0.92-1.46-1.38-3.14-1.38-5.04
		c-1.73,2.87-3.7,4.79-5.89,5.77C405.16,452.3,402.87,452.79,400.49,452.79z M404.06,449.54c1.62,0,3.22-0.47,4.79-1.42
		s3.03-2.53,4.39-4.75v-15.92c-0.81,1.19-2.07,2.14-3.78,2.84c-1.71,0.7-3.47,1.48-5.28,2.31c-1.81,0.84-3.37,1.98-4.67,3.41
		c-1.3,1.44-1.95,3.48-1.95,6.13c0,2.49,0.62,4.34,1.87,5.56C400.68,448.93,402.22,449.54,404.06,449.54z"/>
	<path class="st3" d="M442.96,388.55v56.12c0,2.27,0.47,3.82,1.42,4.63c0.95,0.81,2.53,1.22,4.75,1.22v1.71
		c-0.92-0.05-2.31-0.12-4.18-0.2c-1.87-0.08-3.75-0.12-5.64-0.12c-1.84,0-3.71,0.04-5.6,0.12c-1.9,0.08-3.3,0.15-4.22,0.2v-1.71
		c2.22,0,3.8-0.41,4.75-1.22c0.95-0.81,1.42-2.36,1.42-4.63V398.3c0-2.44-0.43-4.24-1.3-5.4c-0.87-1.16-2.49-1.75-4.87-1.75v-1.71
		c1.73,0.16,3.41,0.24,5.04,0.24c1.57,0,3.07-0.09,4.51-0.28C440.46,389.21,441.77,388.93,442.96,388.55z"/>
	<path class="st3" d="M472.36,409.26c3.46,0,6.58,0.76,9.34,2.27c2.76,1.52,4.97,3.9,6.62,7.15c1.65,3.25,2.48,7.47,2.48,12.67
		c0,5.2-0.83,9.41-2.48,12.63c-1.65,3.22-3.86,5.59-6.62,7.11c-2.76,1.51-5.88,2.27-9.34,2.27c-3.41,0-6.51-0.76-9.3-2.27
		c-2.79-1.52-5.01-3.88-6.66-7.11c-1.65-3.22-2.48-7.43-2.48-12.63c0-5.2,0.82-9.42,2.48-12.67c1.65-3.25,3.87-5.63,6.66-7.15
		C465.85,410.02,468.95,409.26,472.36,409.26z M472.36,410.88c-3.09,0-5.62,1.6-7.59,4.79c-1.98,3.2-2.96,8.42-2.96,15.67
		c0,7.26,0.99,12.47,2.96,15.63c1.98,3.17,4.51,4.75,7.59,4.75c3.09,0,5.62-1.58,7.59-4.75c1.98-3.17,2.96-8.38,2.96-15.63
		c0-7.25-0.99-12.48-2.96-15.67C477.98,412.48,475.45,410.88,472.36,410.88z"/>
	<path class="st3" d="M524.26,409.26c2.06,0,3.78,0.27,5.16,0.81c1.38,0.54,2.53,1.3,3.45,2.27c1.03,1.08,1.76,2.44,2.19,4.06
		c0.43,1.62,0.65,3.82,0.65,6.58v21.68c0,2.27,0.47,3.82,1.42,4.63c0.95,0.81,2.53,1.22,4.75,1.22v1.71
		c-0.92-0.05-2.33-0.12-4.22-0.2c-1.9-0.08-3.74-0.12-5.52-0.12c-1.79,0-3.53,0.04-5.24,0.12c-1.71,0.08-2.99,0.15-3.86,0.2v-1.71
		c1.95,0,3.33-0.41,4.14-1.22c0.81-0.81,1.22-2.36,1.22-4.63V421.2c0-1.68-0.14-3.22-0.41-4.63c-0.27-1.41-0.88-2.54-1.83-3.41
		c-0.95-0.87-2.4-1.3-4.35-1.3c-3.41,0-6.16,1.42-8.24,4.26c-2.08,2.84-3.13,6.35-3.13,10.52v18.03c0,2.27,0.41,3.82,1.22,4.63
		c0.81,0.81,2.19,1.22,4.14,1.22v1.71c-0.87-0.05-2.15-0.12-3.86-0.2c-1.71-0.08-3.45-0.12-5.24-0.12c-1.79,0-3.63,0.04-5.52,0.12
		c-1.9,0.08-3.3,0.15-4.22,0.2v-1.71c2.22,0,3.8-0.41,4.75-1.22c0.95-0.81,1.42-2.36,1.42-4.63v-25.42c0-2.44-0.43-4.24-1.3-5.4
		c-0.87-1.16-2.49-1.75-4.87-1.75v-1.71c1.73,0.16,3.41,0.24,5.04,0.24c1.57,0,3.07-0.09,4.51-0.28c1.43-0.19,2.75-0.47,3.94-0.85
		v9.58c1.41-3.68,3.37-6.24,5.89-7.67C518.86,409.98,521.5,409.26,524.26,409.26z"/>
	<path class="st3" d="M558.93,409.5v35.17c0,2.27,0.47,3.82,1.42,4.63c0.95,0.81,2.53,1.22,4.75,1.22v1.71
		c-0.92-0.05-2.31-0.12-4.18-0.2c-1.87-0.08-3.75-0.12-5.64-0.12c-1.84,0-3.71,0.04-5.6,0.12c-1.9,0.08-3.3,0.15-4.22,0.2v-1.71
		c2.22,0,3.8-0.41,4.75-1.22c0.95-0.81,1.42-2.36,1.42-4.63v-25.42c0-2.44-0.43-4.24-1.3-5.4c-0.87-1.16-2.49-1.75-4.87-1.75v-1.71
		c1.73,0.16,3.41,0.24,5.04,0.24c1.57,0,3.07-0.09,4.51-0.28C556.43,410.17,557.74,409.88,558.93,409.5z M554.71,390.09
		c1.41,0,2.63,0.52,3.66,1.54c1.03,1.03,1.54,2.25,1.54,3.65c0,1.41-0.52,2.63-1.54,3.66c-1.03,1.03-2.25,1.54-3.66,1.54
		c-1.41,0-2.63-0.51-3.65-1.54c-1.03-1.03-1.54-2.25-1.54-3.66c0-1.41,0.51-2.63,1.54-3.65
		C552.08,390.61,553.3,390.09,554.71,390.09z"/>
	<line class="st4" x1="175.53" y1="404.82" x2="175.53" y2="456.2"/>
	<line class="st5" x1="181.35" y1="427.51" x2="197.51" y2="427.51"/>
	<circle class="st3" cx="202.68" cy="447.94" r="5.17"/>
	<line class="st4" x1="202.12" y1="386.7" x2="202.12" y2="438.08"/>
</g>
</svg>
