<?xml version="1.0" encoding="utf-8"?>
<!-- Generator: Adobe Illustrator 24.0.2, SVG Export Plug-In . SVG Version: 6.00 Build 0)  -->
<svg version="1.1" id="Capa_1" xmlns="http://www.w3.org/2000/svg" xmlns:xlink="http://www.w3.org/1999/xlink" x="0px" y="0px"
	 viewBox="0 0 595.28 841.89" style="enable-background:new 0 0 595.28 841.89;" xml:space="preserve">
<style type="text/css">
	.st0{fill:#3C3C3B;}
	.st1{fill:#D8D3BF;}
</style>
<path class="st0" d="M179.15,172.53c-3.33,0-6.52-0.65-9.57-1.95c-3.05-1.3-5.48-3.21-7.3-5.73c-1.81-2.52-2.91-5.27-3.3-8.26
	c-0.17-1.28-0.26-2.69-0.26-4.22c0-1.54,0.19-3.56,0.58-6.08c0.38-2.52,1.23-5.25,2.53-8.19c1.3-2.94,2.85-5.55,4.64-7.81
	c-0.73-2.86-1.09-5.49-1.09-7.9c0-2.41,0.28-4.66,0.83-6.75c0.08-0.34,0.22-0.59,0.42-0.74c0.19-0.15,0.33-0.22,0.42-0.22
	c0.43,0,0.55,0.52,0.38,1.57c-0.17,1.05-0.26,2.54-0.26,4.48c0,1.94,0.28,4.41,0.83,7.39c3.41-4.39,7.42-7.59,12.03-9.6
	c3.54-1.54,7.25-2.3,11.14-2.3c1.11,0,2.26,0.06,3.46,0.19c6.57,0.73,11.01,3.24,13.31,7.55c0.94,1.79,1.41,3.65,1.41,5.57
	s-0.45,3.9-1.34,5.95c-1.88,4.1-5.1,7.13-9.66,9.09c-2.94,1.28-6.17,1.92-9.66,1.92c-1.49,0-3.01-0.11-4.54-0.32
	c-7.64-1.11-12.93-4.74-15.87-10.88c-1.02,1.45-2.08,3.88-3.17,7.3c-1.09,3.41-1.72,6.04-1.89,7.87c-0.17,1.84-0.26,3.37-0.26,4.61
	c0,1.24,0.08,2.52,0.26,3.84c0.3,2.35,1.19,4.47,2.69,6.37c1.49,1.9,3.49,3.22,5.98,3.97c2.5,0.75,4.66,1.12,6.5,1.12
	c5.93,0,10.99-1.24,15.17-3.71c2.52-1.49,4.49-3.19,5.92-5.09c1.43-1.9,2.95-4.51,4.58-7.84c0.26-0.55,0.52-0.75,0.8-0.58
	c0.28,0.17,0.27,0.58-0.03,1.22c-1.62,3.29-3.13,5.89-4.51,7.81c-1.39,1.92-3.28,3.71-5.66,5.38
	C189.86,170.86,184.7,172.53,179.15,172.53z M169.55,133.23c3.03,7.72,9.34,11.58,18.94,11.58c5.42,0,9.76-1.51,13.02-4.54
	c3.26-3.03,4.9-6.46,4.9-10.3c0-3.84-1.66-6.83-4.99-8.96c-2.47-1.58-5.53-2.37-9.15-2.37c-3.63,0-7.27,1.05-10.94,3.14
	C176.72,124.46,172.79,128.28,169.55,133.23z"/>
<path class="st0" d="M212.62,140.4c0,1.92-1.22,3.73-3.65,5.44c0.85,0.04,1.99,0.06,3.42,0.06c1.43,0,3.23-0.11,5.41-0.32
	c0.08,0.13,0.13,0.47,0.13,1.02c0,0.56-0.26,1.38-0.77,2.46c-0.51,1.09-0.97,2.03-1.38,2.82c-0.41,0.79-0.79,1.54-1.15,2.24
	c-0.36,0.7-0.77,1.57-1.22,2.59c-0.45,1.02-0.82,1.96-1.12,2.82c-1.07,3.24-0.9,4.86,0.51,4.86c1.79,0,4.44-3.56,7.94-10.69
	c0.3-0.55,0.54-0.77,0.74-0.64c0.19,0.13,0.29,0.29,0.29,0.48c0,0.19-0.28,0.85-0.83,1.98c-0.55,1.13-1.15,2.29-1.79,3.49
	c-0.64,1.19-1.64,2.58-3.01,4.16c-1.62,1.96-3.18,2.94-4.67,2.94c-1.66,0-2.82-1-3.46-3.01c-0.13-0.38-0.19-0.96-0.19-1.73
	s0.25-1.79,0.74-3.07c0.49-1.28,1.27-2.84,2.34-4.67c1.07-1.83,1.66-2.91,1.79-3.23s0.19-0.63,0.19-0.93c0-1.32-1.71-2.03-5.12-2.11
	l-0.77,2.05c-2.69,7.04-5.27,11.76-7.74,14.14c-0.43,0.38-0.64,0.26-0.64-0.38c0-0.13,0.04-0.28,0.13-0.45
	c2.39-3.16,4.46-6.89,6.21-11.2c1.75-4.31,2.97-8.41,3.65-12.29c0.26-1.32,0.85-1.98,1.79-1.98c0.94,0,1.62,0.6,2.05,1.79
	C212.56,139.44,212.62,139.89,212.62,140.4z"/>
<path class="st0" d="M223.12,164.65c0.81,0,1.66-0.4,2.56-1.22c1.58-1.58,3.58-4.8,6.02-9.66c0.3-0.64,0.6-0.83,0.9-0.58
	c0.08,0.09,0.13,0.22,0.13,0.42c0,0.19-0.17,0.66-0.51,1.41c-0.34,0.75-0.65,1.42-0.93,2.02c-0.28,0.6-0.81,1.57-1.6,2.91
	c-0.79,1.34-1.5,2.38-2.14,3.1c-1.75,2.01-3.4,3.01-4.96,3.01c-1.56,0-2.68-0.47-3.36-1.41c-0.68-0.94-1.02-1.98-1.02-3.14
	s0.28-2.41,0.83-3.78l4.1-10.43c0.08-0.26,0.13-0.6,0.13-1.02c0-0.43-0.26-0.98-0.77-1.66l3.52-0.06c0.98,0,1.56,0.18,1.73,0.54
	c0.17,0.36,0.04,0.93-0.38,1.7l-5.12,11.97c-0.73,1.58-1.09,2.92-1.09,4.03C221.14,164.04,221.8,164.65,223.12,164.65z
	 M229.39,141.17c-0.6,0.51-1.26,0.77-1.98,0.77c-0.73,0-1.3-0.26-1.73-0.77c-0.43-0.51-0.6-1.13-0.51-1.86
	c0.13-0.73,0.49-1.34,1.09-1.86c0.6-0.51,1.26-0.77,1.98-0.77c0.72,0,1.31,0.26,1.76,0.77c0.45,0.51,0.61,1.13,0.48,1.86
	C230.35,140.04,229.99,140.65,229.39,141.17z"/>
<path class="st0" d="M237.26,164.85c0.55,0.09,0.94,0.13,1.15,0.13c1.71,0,3.39-1,5.06-3.01c0.9-1.11,2.5-3.9,4.8-8.38
	c0.08-0.21,0.23-0.32,0.45-0.32c0.38-0.04,0.58,0.11,0.58,0.45c0,0.09-0.1,0.33-0.29,0.74c-0.19,0.41-0.37,0.81-0.54,1.22
	c-0.17,0.41-0.45,0.99-0.83,1.76s-0.71,1.39-0.99,1.86c-0.28,0.47-0.63,1.05-1.06,1.73c-0.43,0.68-0.85,1.22-1.28,1.6l-1.34,1.41
	c-0.73,0.73-1.58,1.24-2.56,1.54c-1.58,0.51-3.12,0.55-4.61,0.13c-0.98,0.43-1.86,0.64-2.62,0.64c-3.03,0-4.86-1.19-5.5-3.58
	c-0.13-0.55-0.19-1.23-0.19-2.02c0-0.79,0.27-1.55,0.8-2.27c0.53-0.72,1.1-1.11,1.7-1.15c2.18-4.14,4.03-7.87,5.57-11.2
	c1.71-3.63,3.69-5.44,5.95-5.44c0.6,0,1.18,0.14,1.76,0.42c0.58,0.28,0.79,0.59,0.64,0.93c-0.15,0.34-0.46,0.41-0.93,0.19
	c-0.47-0.21-0.88-0.32-1.22-0.32c-0.34,0-0.64,0.06-0.9,0.19c-1.45,0.68-2.18,2.15-2.18,4.42c0,1.19,0.17,2.18,0.51,2.94
	c0.34,0.77,0.73,1.6,1.15,2.5c0.98,2.22,1.47,4.03,1.47,5.44c0,1.41-0.45,2.79-1.34,4.16C239.57,162.88,238.5,163.99,237.26,164.85z
	 M230.29,162.67c0,0.26,0.02,0.53,0.06,0.83c0.34,1.15,1.13,1.73,2.37,1.73c0.51,0,0.94-0.08,1.28-0.26
	c-1.58-0.98-2.43-2.58-2.56-4.8C230.67,160.94,230.29,161.77,230.29,162.67z M235.09,164.4c1.88-1.45,2.82-3.8,2.82-7.04
	c0-1.32-0.15-3.14-0.45-5.44c-0.3-2.3-0.45-3.86-0.45-4.67c0-0.81,0.02-1.37,0.06-1.66c-3.24,6.49-5.25,10.43-6.02,11.84
	c0.9,0,1.34,0.64,1.34,1.92C232.4,161.86,233.3,163.55,235.09,164.4z"/>
<path class="st0" d="M318.73,122.61c0-1.49-0.68-2.9-2.05-4.22c-1.96-1.88-4.67-2.82-8.13-2.82c-3.03,0-6.38,0.66-10.05,1.98
	c-1.92,0.68-3.58,1.62-4.99,2.82c-2.18,1.88-3.26,3.75-3.26,5.63c0,2.52,1.6,4.78,4.8,6.78c1.19,0.73,3.59,1.91,7.2,3.55
	c3.6,1.64,6.24,2.98,7.9,4c2.52,1.54,4.26,3.18,5.22,4.93c0.96,1.75,1.44,3.37,1.44,4.86c0,2.13-0.7,4.31-2.11,6.53
	c-2.47,3.97-6.1,7.38-10.88,10.24c-5.5,3.33-12.14,4.99-19.9,4.99c-7.47,0-13.4-1.9-17.79-5.7c-3.41-2.9-5.12-6.63-5.12-11.2
	c0-2.9,1.06-6.1,3.17-9.6c2.11-3.5,4.7-5.97,7.78-7.42c0.64-0.26,1.12-0.34,1.44-0.26c0.32,0.09,0.05,0.49-0.8,1.22
	c-1.83,1.45-3.31,3.05-4.42,4.8c-2.39,3.75-3.58,7.83-3.58,12.22c0,2.9,0.81,5.44,2.43,7.62c2.9,3.88,7.94,6.08,15.1,6.59
	c0.81,0.08,2.02,0.13,3.62,0.13s3.78-0.29,6.53-0.86c2.75-0.58,5.41-1.53,7.97-2.85c5.5-2.9,9.07-6.66,10.69-11.26
	c0.51-1.37,0.77-2.69,0.77-3.97c0-2.9-1.3-5.46-3.9-7.68c-1.41-1.11-4.28-2.59-8.61-4.45c-4.33-1.86-7.24-3.27-8.74-4.26
	c-3.29-2.22-4.93-4.84-4.93-7.87c0-2.65,1.47-5.23,4.42-7.74c4.22-3.58,10.2-5.38,17.92-5.38c3.63,0,6.58,0.54,8.86,1.63
	c2.28,1.09,3.68,2.72,4.19,4.9c0.08,0.43,0.13,0.85,0.13,1.28c0,1.66-0.77,3.16-2.3,4.48c-1.07,0.85-2.5,1.54-4.29,2.05
	c-0.77,0.21-1.19,0.13-1.28-0.26c-0.09-0.55,0.45-0.9,1.6-1.02c2.05-0.26,3.31-1.28,3.78-3.07
	C318.67,123.48,318.73,123.03,318.73,122.61z"/>
<path class="st0" d="M338.57,153.93c-1.41,2.71-2.25,4.74-2.53,6.08c-0.28,1.34-0.42,2.43-0.42,3.26s0.32,1.25,0.96,1.25
	c0.81,0,1.81-0.75,3.01-2.24c1.75-2.18,3.48-5.01,5.18-8.51c0.17-0.38,0.36-0.6,0.58-0.64c0.34-0.13,0.51,0,0.51,0.38
	c0,0.21-0.06,0.47-0.19,0.77c-3.93,7.94-7.23,11.9-9.92,11.9c-1.24,0-2.24-0.6-3.01-1.79c-0.38-0.64-0.58-1.49-0.58-2.56
	c0-1.07,0.21-2.37,0.64-3.9c-3.41,5.5-6.36,8.26-8.83,8.26c-0.68,0-1.3-0.21-1.86-0.64c-1.28-0.9-1.92-2.43-1.92-4.61
	c0-4.18,1.81-8.43,5.44-12.74c2.05-2.39,4.56-3.95,7.55-4.67c0.81-0.21,1.58-0.32,2.3-0.32c1.96,0,3.63,0.68,4.99,2.05
	c0.43,0.47,0.55,0.92,0.38,1.34c-0.17,0.43-0.53,0.6-1.09,0.51c-0.47-1.54-1.49-2.3-3.07-2.3c-1.83,0-4.1,1.45-6.78,4.35
	c-1.54,1.71-2.97,3.71-4.29,6.02c-1.66,2.77-2.5,4.99-2.5,6.66s0.53,2.5,1.6,2.5c2.56,0,5.91-3.92,10.05-11.78
	c0.81-1.58,1.49-2.66,2.05-3.23c0.55-0.58,1.26-0.86,2.11-0.86c0.17,0,0.61,0.06,1.31,0.19c0.7,0.13,1.23,0.15,1.57,0.06
	C341.07,149.49,339.98,151.23,338.57,153.93z"/>
<path class="st0" d="M364.11,145.07c-5.25,9.22-7.87,15.23-7.87,18.05c0,1.11,0.41,1.66,1.22,1.66c2.18,0,5.1-3.69,8.77-11.07
	c0.26-0.6,0.51-0.83,0.77-0.7c0.26,0.13,0.38,0.3,0.38,0.51c0,0.21-0.09,0.47-0.26,0.77c-2.26,4.57-4.17,7.71-5.73,9.44
	s-3.12,2.59-4.67,2.59c-1.56,0-2.74-0.6-3.55-1.79c-0.43-0.55-0.64-1.31-0.64-2.27s0.21-2.12,0.64-3.49
	c0.43-1.37,1.6-3.58,3.52-6.66c0.47-0.77,0.7-1.38,0.7-1.82c0-0.45-0.36-0.67-1.09-0.67c-0.73,0-2.11,0.96-4.16,2.88
	c-3.07,2.82-6.04,7.04-8.9,12.67c-0.26,0.43-0.54,0.69-0.86,0.8s-0.95,0.18-1.89,0.22c-0.94,0.04-1.56,0.15-1.86,0.32
	c0.68-1.37,2.03-4.16,4.03-8.38c3.58-7.47,5.93-11.73,7.04-12.8c0.51-0.51,1.22-0.77,2.11-0.77c0.17,0,0.61,0.06,1.31,0.19
	s1.23,0.15,1.57,0.06c-1.58,0.85-4.16,4.86-7.74,12.03c2-2.47,3.83-4.45,5.47-5.92c1.64-1.47,3.62-2.84,5.92-4.1
	c2.3-1.26,3.99-1.89,5.06-1.89C363.66,144.94,363.89,144.99,364.11,145.07z"/>
<path class="st0" d="M371.72,164.85c0.55,0.09,0.94,0.13,1.15,0.13c1.71,0,3.39-1,5.06-3.01c0.9-1.11,2.5-3.9,4.8-8.38
	c0.08-0.21,0.23-0.32,0.45-0.32c0.38-0.04,0.58,0.11,0.58,0.45c0,0.09-0.1,0.33-0.29,0.74c-0.19,0.41-0.37,0.81-0.54,1.22
	c-0.17,0.41-0.45,0.99-0.83,1.76c-0.38,0.77-0.71,1.39-0.99,1.86c-0.28,0.47-0.63,1.05-1.06,1.73c-0.43,0.68-0.85,1.22-1.28,1.6
	l-1.34,1.41c-0.73,0.73-1.58,1.24-2.56,1.54c-1.58,0.51-3.12,0.55-4.61,0.13c-0.98,0.43-1.86,0.64-2.62,0.64
	c-3.03,0-4.86-1.19-5.5-3.58c-0.13-0.55-0.19-1.23-0.19-2.02c0-0.79,0.27-1.55,0.8-2.27c0.53-0.72,1.1-1.11,1.7-1.15
	c2.18-4.14,4.03-7.87,5.57-11.2c1.71-3.63,3.69-5.44,5.95-5.44c0.6,0,1.18,0.14,1.76,0.42c0.58,0.28,0.79,0.59,0.64,0.93
	c-0.15,0.34-0.46,0.41-0.93,0.19c-0.47-0.21-0.88-0.32-1.22-0.32c-0.34,0-0.64,0.06-0.9,0.19c-1.45,0.68-2.18,2.15-2.18,4.42
	c0,1.19,0.17,2.18,0.51,2.94c0.34,0.77,0.72,1.6,1.15,2.5c0.98,2.22,1.47,4.03,1.47,5.44c0,1.41-0.45,2.79-1.34,4.16
	C374.03,162.88,372.96,163.99,371.72,164.85z M364.75,162.67c0,0.26,0.02,0.53,0.06,0.83c0.34,1.15,1.13,1.73,2.37,1.73
	c0.51,0,0.94-0.08,1.28-0.26c-1.58-0.98-2.43-2.58-2.56-4.8C365.13,160.94,364.75,161.77,364.75,162.67z M369.55,164.4
	c1.88-1.45,2.82-3.8,2.82-7.04c0-1.32-0.15-3.14-0.45-5.44c-0.3-2.3-0.45-3.86-0.45-4.67c0-0.81,0.02-1.37,0.06-1.66
	c-3.24,6.49-5.25,10.43-6.02,11.84c0.9,0,1.34,0.64,1.34,1.92C366.86,161.86,367.76,163.55,369.55,164.4z"/>
<path class="st0" d="M398.8,153.93c-1.41,2.71-2.25,4.74-2.53,6.08c-0.28,1.34-0.42,2.43-0.42,3.26s0.32,1.25,0.96,1.25
	c0.81,0,1.81-0.75,3.01-2.24c1.75-2.18,3.48-5.01,5.18-8.51c0.17-0.38,0.36-0.6,0.58-0.64c0.34-0.13,0.51,0,0.51,0.38
	c0,0.21-0.06,0.47-0.19,0.77c-3.93,7.94-7.23,11.9-9.92,11.9c-1.24,0-2.24-0.6-3.01-1.79c-0.38-0.64-0.58-1.49-0.58-2.56
	c0-1.07,0.21-2.37,0.64-3.9c-3.41,5.5-6.36,8.26-8.83,8.26c-0.68,0-1.3-0.21-1.86-0.64c-1.28-0.9-1.92-2.43-1.92-4.61
	c0-4.18,1.81-8.43,5.44-12.74c2.05-2.39,4.56-3.95,7.55-4.67c0.81-0.21,1.58-0.32,2.3-0.32c1.96,0,3.63,0.68,4.99,2.05
	c0.43,0.47,0.55,0.92,0.38,1.34c-0.17,0.43-0.53,0.6-1.09,0.51c-0.47-1.54-1.49-2.3-3.07-2.3c-1.83,0-4.1,1.45-6.78,4.35
	c-1.54,1.71-2.97,3.71-4.29,6.02c-1.66,2.77-2.5,4.99-2.5,6.66s0.53,2.5,1.6,2.5c2.56,0,5.91-3.92,10.05-11.78
	c0.81-1.58,1.49-2.66,2.05-3.23c0.55-0.58,1.26-0.86,2.11-0.86c0.17,0,0.61,0.06,1.31,0.19c0.7,0.13,1.23,0.15,1.57,0.06
	C401.29,149.49,400.2,151.23,398.8,153.93z"/>
<path class="st0" d="M407.95,155.47c-0.34,1-0.63,1.96-0.86,2.88c-0.23,0.92-0.35,1.83-0.35,2.75c0,0.92,0.21,1.77,0.64,2.56
	c0.43,0.79,1.11,1.18,2.05,1.18c1.54,0,3.03-1.03,4.48-3.1c1.45-2.07,2.99-4.7,4.61-7.9c0.34-0.6,0.66-0.83,0.96-0.7
	c0.21,0.17,0.26,0.4,0.13,0.67c-0.13,0.28-0.4,0.88-0.8,1.79c-0.41,0.92-0.7,1.56-0.9,1.92c-0.19,0.36-0.53,1-1.02,1.92
	c-0.49,0.92-0.92,1.6-1.28,2.05c-0.36,0.45-0.85,1.02-1.47,1.73c-0.62,0.7-1.21,1.23-1.76,1.57c-1.49,0.94-2.9,1.41-4.22,1.41
	c-1.32,0-2.35-0.29-3.07-0.86c-0.73-0.58-1.16-1.19-1.31-1.86c-0.15-0.66-0.22-1.25-0.22-1.76c0-0.51,0.02-1.17,0.06-1.98
	c0.13-1.37,0.39-2.69,0.8-3.97c0.41-1.28,0.63-2,0.67-2.18c0.98-3.54,2.38-7.4,4.19-11.58c1.81-4.18,3.35-7.33,4.61-9.44
	c1.26-2.11,2.25-3.55,2.98-4.32c1.45-1.54,2.88-2.3,4.29-2.3c0.98,0,1.64,0.7,1.98,2.11c0.04,0.26,0.06,0.58,0.06,0.96
	c0,1.45-0.51,3.29-1.54,5.5c-3.67,8.15-8.04,14.55-13.12,19.2C408.48,153.88,408.29,154.47,407.95,155.47z M415.5,143.28
	c2.13-3.37,3.7-6.24,4.7-8.61c1-2.37,1.5-3.98,1.5-4.83c0-0.85-0.15-1.28-0.45-1.28c-0.43,0-1.24,0.84-2.43,2.53
	c-1.19,1.69-2.81,4.71-4.83,9.09c-2.03,4.37-3.68,8.2-4.96,11.49C411.21,149.44,413.37,146.65,415.5,143.28z"/>
<path class="st0" d="M430.22,143.66c3.11,0,4.67,1.96,4.67,5.89c0,1.79-0.47,3.71-1.41,5.76c-1.19,2.77-2.99,5.29-5.38,7.55
	c0.55,1.07,1.56,1.6,3.01,1.6c1.15,0,2.24-0.58,3.26-1.73c1.28-1.32,2.2-2.48,2.75-3.49c0.55-1,0.96-1.74,1.22-2.21
	c0.26-0.47,0.59-1.14,0.99-2.02c0.41-0.87,0.65-1.41,0.74-1.6c0.08-0.19,0.23-0.29,0.45-0.29c0.43-0.04,0.64,0.11,0.64,0.45
	c0,0.13-0.04,0.28-0.13,0.45l-0.38,0.9c-0.26,0.6-0.45,1.02-0.58,1.28s-0.35,0.71-0.67,1.38c-0.32,0.66-0.6,1.18-0.83,1.57
	c-0.24,0.38-0.56,0.9-0.96,1.54c-0.41,0.64-0.77,1.15-1.09,1.54c-0.32,0.38-0.71,0.81-1.18,1.28c-0.47,0.47-0.92,0.83-1.34,1.09
	c-1.07,0.64-2.07,0.96-3.01,0.96c-1.75,0-3.12-0.55-4.1-1.66c-1.96,1.45-3.78,2.18-5.44,2.18c-3.12,0-4.67-1.96-4.67-5.89
	c0-1.79,0.47-3.71,1.41-5.76c1.28-2.99,3.08-5.52,5.41-7.62C425.92,144.71,428.13,143.66,430.22,143.66z M430.92,145.65
	c-1.15,0-2.52,0.77-4.1,2.3c-1.58,1.54-2.99,3.63-4.22,6.27c-1.49,3.07-2.24,5.59-2.24,7.55c0,1.96,0.75,2.94,2.24,2.94
	c1.07,0,2.26-0.58,3.58-1.73c-0.68-0.98-1.02-2.03-1.02-3.14c0.08-1.83,0.83-2.75,2.24-2.75c0.55,0,1.01,0.19,1.38,0.58
	c0.36,0.38,0.54,0.74,0.54,1.06c0,0.32-0.04,0.65-0.13,0.99c0.72-1.07,1.56-2.58,2.5-4.54c1.07-2.18,1.6-4.31,1.6-6.4
	C433.29,146.69,432.5,145.65,430.92,145.65z"/>
<path class="st0" d="M459.34,145.07c-5.25,9.22-7.87,15.23-7.87,18.05c0,1.11,0.41,1.66,1.22,1.66c2.18,0,5.1-3.69,8.77-11.07
	c0.26-0.6,0.51-0.83,0.77-0.7c0.26,0.13,0.38,0.3,0.38,0.51c0,0.21-0.09,0.47-0.26,0.77c-2.26,4.57-4.17,7.71-5.73,9.44
	s-3.12,2.59-4.67,2.59c-1.56,0-2.74-0.6-3.55-1.79c-0.43-0.55-0.64-1.31-0.64-2.27s0.21-2.12,0.64-3.49
	c0.43-1.37,1.6-3.58,3.52-6.66c0.47-0.77,0.7-1.38,0.7-1.82c0-0.45-0.36-0.67-1.09-0.67c-0.73,0-2.11,0.96-4.16,2.88
	c-3.07,2.82-6.04,7.04-8.9,12.67c-0.26,0.43-0.54,0.69-0.86,0.8s-0.95,0.18-1.89,0.22c-0.94,0.04-1.56,0.15-1.86,0.32
	c0.68-1.37,2.03-4.16,4.03-8.38c3.58-7.47,5.93-11.73,7.04-12.8c0.51-0.51,1.22-0.77,2.11-0.77c0.17,0,0.61,0.06,1.31,0.19
	s1.23,0.15,1.57,0.06c-1.58,0.85-4.16,4.86-7.74,12.03c2-2.47,3.83-4.45,5.47-5.92c1.64-1.47,3.62-2.84,5.92-4.1
	c2.3-1.26,3.99-1.89,5.06-1.89C458.89,144.94,459.12,144.99,459.34,145.07z"/>
<path class="st0" d="M463.95,164.65c0.81,0,1.66-0.4,2.56-1.22c1.58-1.58,3.58-4.8,6.02-9.66c0.3-0.64,0.6-0.83,0.9-0.58
	c0.08,0.09,0.13,0.22,0.13,0.42c0,0.19-0.17,0.66-0.51,1.41c-0.34,0.75-0.65,1.42-0.93,2.02c-0.28,0.6-0.81,1.57-1.6,2.91
	c-0.79,1.34-1.5,2.38-2.14,3.1c-1.75,2.01-3.4,3.01-4.96,3.01s-2.68-0.47-3.36-1.41c-0.68-0.94-1.02-1.98-1.02-3.14
	s0.28-2.41,0.83-3.78l4.1-10.43c0.08-0.26,0.13-0.6,0.13-1.02c0-0.43-0.26-0.98-0.77-1.66l3.52-0.06c0.98,0,1.56,0.18,1.73,0.54
	c0.17,0.36,0.04,0.93-0.38,1.7l-5.12,11.97c-0.73,1.58-1.09,2.92-1.09,4.03C461.96,164.04,462.62,164.65,463.95,164.65z
	 M470.22,141.17c-0.6,0.51-1.26,0.77-1.98,0.77s-1.3-0.26-1.73-0.77c-0.43-0.51-0.6-1.13-0.51-1.86c0.13-0.73,0.49-1.34,1.09-1.86
	c0.6-0.51,1.26-0.77,1.98-0.77s1.31,0.26,1.76,0.77c0.45,0.51,0.61,1.13,0.48,1.86C471.18,140.04,470.81,140.65,470.22,141.17z"/>
<path class="st1" d="M160.49,450.55c-3.33,0-6.52-0.65-9.57-1.95c-3.05-1.3-5.48-3.21-7.3-5.73c-1.81-2.52-2.91-5.27-3.3-8.26
	c-0.17-1.28-0.26-2.69-0.26-4.22c0-1.54,0.19-3.56,0.58-6.08c0.38-2.52,1.23-5.25,2.53-8.19c1.3-2.94,2.85-5.55,4.64-7.81
	c-0.73-2.86-1.09-5.49-1.09-7.9c0-2.41,0.28-4.66,0.83-6.75c0.08-0.34,0.22-0.59,0.42-0.74c0.19-0.15,0.33-0.22,0.42-0.22
	c0.43,0,0.55,0.52,0.38,1.57c-0.17,1.05-0.26,2.54-0.26,4.48c0,1.94,0.28,4.41,0.83,7.39c3.41-4.39,7.42-7.59,12.03-9.6
	c3.54-1.54,7.25-2.3,11.14-2.3c1.11,0,2.26,0.06,3.46,0.19c6.57,0.73,11.01,3.24,13.31,7.55c0.94,1.79,1.41,3.65,1.41,5.57
	s-0.45,3.9-1.34,5.95c-1.88,4.1-5.1,7.13-9.66,9.09c-2.94,1.28-6.17,1.92-9.66,1.92c-1.49,0-3.01-0.11-4.54-0.32
	c-7.64-1.11-12.93-4.74-15.87-10.88c-1.02,1.45-2.08,3.88-3.17,7.3c-1.09,3.41-1.72,6.04-1.89,7.87c-0.17,1.84-0.26,3.37-0.26,4.61
	c0,1.24,0.08,2.52,0.26,3.84c0.3,2.35,1.19,4.47,2.69,6.37c1.49,1.9,3.49,3.22,5.98,3.97c2.5,0.75,4.66,1.12,6.5,1.12
	c5.93,0,10.99-1.24,15.17-3.71c2.52-1.49,4.49-3.19,5.92-5.09c1.43-1.9,2.95-4.51,4.58-7.84c0.26-0.55,0.52-0.75,0.8-0.58
	c0.28,0.17,0.27,0.58-0.03,1.22c-1.62,3.29-3.13,5.89-4.51,7.81c-1.39,1.92-3.28,3.71-5.66,5.38
	C171.2,448.89,166.04,450.55,160.49,450.55z M150.89,411.25c3.03,7.72,9.34,11.58,18.94,11.58c5.42,0,9.76-1.51,13.02-4.54
	c3.26-3.03,4.9-6.46,4.9-10.3c0-3.84-1.66-6.83-4.99-8.96c-2.47-1.58-5.53-2.37-9.15-2.37c-3.63,0-7.27,1.05-10.94,3.14
	C158.06,402.49,154.13,406.31,150.89,411.25z"/>
<path class="st1" d="M193.96,418.42c0,1.92-1.22,3.73-3.65,5.44c0.85,0.04,1.99,0.06,3.42,0.06c1.43,0,3.23-0.11,5.41-0.32
	c0.08,0.13,0.13,0.47,0.13,1.02c0,0.56-0.26,1.38-0.77,2.46c-0.51,1.09-0.97,2.03-1.38,2.82c-0.41,0.79-0.79,1.54-1.15,2.24
	c-0.36,0.7-0.77,1.57-1.22,2.59c-0.45,1.02-0.82,1.96-1.12,2.82c-1.07,3.24-0.9,4.86,0.51,4.86c1.79,0,4.44-3.56,7.94-10.69
	c0.3-0.55,0.54-0.77,0.74-0.64c0.19,0.13,0.29,0.29,0.29,0.48c0,0.19-0.28,0.85-0.83,1.98c-0.55,1.13-1.15,2.29-1.79,3.49
	c-0.64,1.19-1.64,2.58-3.01,4.16c-1.62,1.96-3.18,2.94-4.67,2.94c-1.66,0-2.82-1-3.46-3.01c-0.13-0.38-0.19-0.96-0.19-1.73
	s0.25-1.79,0.74-3.07c0.49-1.28,1.27-2.84,2.34-4.67c1.07-1.83,1.66-2.91,1.79-3.23s0.19-0.63,0.19-0.93c0-1.32-1.71-2.03-5.12-2.11
	l-0.77,2.05c-2.69,7.04-5.27,11.76-7.74,14.14c-0.43,0.38-0.64,0.26-0.64-0.38c0-0.13,0.04-0.28,0.13-0.45
	c2.39-3.16,4.46-6.89,6.21-11.2c1.75-4.31,2.97-8.41,3.65-12.29c0.26-1.32,0.85-1.98,1.79-1.98c0.94,0,1.62,0.6,2.05,1.79
	C193.9,417.46,193.96,417.91,193.96,418.42z"/>
<path class="st1" d="M204.46,442.68c0.81,0,1.66-0.4,2.56-1.22c1.58-1.58,3.58-4.8,6.02-9.66c0.3-0.64,0.6-0.83,0.9-0.58
	c0.08,0.09,0.13,0.22,0.13,0.42c0,0.19-0.17,0.66-0.51,1.41c-0.34,0.75-0.65,1.42-0.93,2.02c-0.28,0.6-0.81,1.57-1.6,2.91
	c-0.79,1.34-1.5,2.38-2.14,3.1c-1.75,2.01-3.4,3.01-4.96,3.01c-1.56,0-2.68-0.47-3.36-1.41c-0.68-0.94-1.02-1.98-1.02-3.14
	s0.28-2.41,0.83-3.78l4.1-10.43c0.08-0.26,0.13-0.6,0.13-1.02c0-0.43-0.26-0.98-0.77-1.66l3.52-0.06c0.98,0,1.56,0.18,1.73,0.54
	c0.17,0.36,0.04,0.93-0.38,1.7l-5.12,11.97c-0.73,1.58-1.09,2.92-1.09,4.03C202.47,442.06,203.13,442.68,204.46,442.68z
	 M210.73,419.19c-0.6,0.51-1.26,0.77-1.98,0.77c-0.73,0-1.3-0.26-1.73-0.77c-0.43-0.51-0.6-1.13-0.51-1.86
	c0.13-0.73,0.49-1.34,1.09-1.86c0.6-0.51,1.26-0.77,1.98-0.77c0.72,0,1.31,0.26,1.76,0.77c0.45,0.51,0.61,1.13,0.48,1.86
	C211.69,418.06,211.33,418.68,210.73,419.19z"/>
<path class="st1" d="M218.6,442.87c0.55,0.09,0.94,0.13,1.15,0.13c1.71,0,3.39-1,5.06-3.01c0.9-1.11,2.5-3.9,4.8-8.38
	c0.08-0.21,0.23-0.32,0.45-0.32c0.38-0.04,0.58,0.11,0.58,0.45c0,0.09-0.1,0.33-0.29,0.74c-0.19,0.41-0.37,0.81-0.54,1.22
	c-0.17,0.41-0.45,0.99-0.83,1.76s-0.71,1.39-0.99,1.86c-0.28,0.47-0.63,1.05-1.06,1.73c-0.43,0.68-0.85,1.22-1.28,1.6l-1.34,1.41
	c-0.73,0.73-1.58,1.24-2.56,1.54c-1.58,0.51-3.12,0.55-4.61,0.13c-0.98,0.43-1.86,0.64-2.62,0.64c-3.03,0-4.86-1.19-5.5-3.58
	c-0.13-0.55-0.19-1.23-0.19-2.02c0-0.79,0.27-1.55,0.8-2.27c0.53-0.72,1.1-1.11,1.7-1.15c2.18-4.14,4.03-7.87,5.57-11.2
	c1.71-3.63,3.69-5.44,5.95-5.44c0.6,0,1.18,0.14,1.76,0.42c0.58,0.28,0.79,0.59,0.64,0.93c-0.15,0.34-0.46,0.41-0.93,0.19
	c-0.47-0.21-0.88-0.32-1.22-0.32c-0.34,0-0.64,0.06-0.9,0.19c-1.45,0.68-2.18,2.15-2.18,4.42c0,1.19,0.17,2.18,0.51,2.94
	c0.34,0.77,0.73,1.6,1.15,2.5c0.98,2.22,1.47,4.03,1.47,5.44c0,1.41-0.45,2.79-1.34,4.16C220.91,440.91,219.84,442.02,218.6,442.87z
	 M211.63,440.69c0,0.26,0.02,0.53,0.06,0.83c0.34,1.15,1.13,1.73,2.37,1.73c0.51,0,0.94-0.08,1.28-0.26
	c-1.58-0.98-2.43-2.58-2.56-4.8C212.01,438.97,211.63,439.8,211.63,440.69z M216.43,442.42c1.88-1.45,2.82-3.8,2.82-7.04
	c0-1.32-0.15-3.14-0.45-5.44c-0.3-2.3-0.45-3.86-0.45-4.67c0-0.81,0.02-1.37,0.06-1.66c-3.24,6.49-5.25,10.43-6.02,11.84
	c0.9,0,1.34,0.64,1.34,1.92C213.74,439.88,214.63,441.57,216.43,442.42z"/>
<path class="st1" d="M300.07,400.63c0-1.49-0.68-2.9-2.05-4.22c-1.96-1.88-4.67-2.82-8.13-2.82c-3.03,0-6.38,0.66-10.05,1.98
	c-1.92,0.68-3.58,1.62-4.99,2.82c-2.18,1.88-3.26,3.75-3.26,5.63c0,2.52,1.6,4.78,4.8,6.78c1.19,0.73,3.59,1.91,7.2,3.55
	c3.6,1.64,6.24,2.98,7.9,4c2.52,1.54,4.26,3.18,5.22,4.93c0.96,1.75,1.44,3.37,1.44,4.86c0,2.13-0.7,4.31-2.11,6.53
	c-2.47,3.97-6.1,7.38-10.88,10.24c-5.5,3.33-12.14,4.99-19.9,4.99c-7.47,0-13.4-1.9-17.79-5.7c-3.41-2.9-5.12-6.63-5.12-11.2
	c0-2.9,1.06-6.1,3.17-9.6c2.11-3.5,4.7-5.97,7.78-7.42c0.64-0.26,1.12-0.34,1.44-0.26c0.32,0.09,0.05,0.49-0.8,1.22
	c-1.83,1.45-3.31,3.05-4.42,4.8c-2.39,3.75-3.58,7.83-3.58,12.22c0,2.9,0.81,5.44,2.43,7.62c2.9,3.88,7.94,6.08,15.1,6.59
	c0.81,0.08,2.02,0.13,3.62,0.13s3.78-0.29,6.53-0.86c2.75-0.58,5.41-1.53,7.97-2.85c5.5-2.9,9.07-6.66,10.69-11.26
	c0.51-1.37,0.77-2.69,0.77-3.97c0-2.9-1.3-5.46-3.9-7.68c-1.41-1.11-4.28-2.59-8.61-4.45c-4.33-1.86-7.24-3.27-8.74-4.26
	c-3.29-2.22-4.93-4.84-4.93-7.87c0-2.65,1.47-5.23,4.42-7.74c4.22-3.58,10.2-5.38,17.92-5.38c3.63,0,6.58,0.54,8.86,1.63
	c2.28,1.09,3.68,2.72,4.19,4.9c0.08,0.43,0.13,0.85,0.13,1.28c0,1.66-0.77,3.16-2.3,4.48c-1.07,0.85-2.5,1.54-4.29,2.05
	c-0.77,0.21-1.19,0.13-1.28-0.26c-0.09-0.55,0.45-0.9,1.6-1.02c2.05-0.26,3.31-1.28,3.78-3.07
	C300.01,401.51,300.07,401.06,300.07,400.63z"/>
<path class="st1" d="M319.91,431.96c-1.41,2.71-2.25,4.74-2.53,6.08c-0.28,1.34-0.42,2.43-0.42,3.26s0.32,1.25,0.96,1.25
	c0.81,0,1.81-0.75,3.01-2.24c1.75-2.18,3.48-5.01,5.18-8.51c0.17-0.38,0.36-0.6,0.58-0.64c0.34-0.13,0.51,0,0.51,0.38
	c0,0.21-0.06,0.47-0.19,0.77c-3.93,7.94-7.23,11.9-9.92,11.9c-1.24,0-2.24-0.6-3.01-1.79c-0.38-0.64-0.58-1.49-0.58-2.56
	c0-1.07,0.21-2.37,0.64-3.9c-3.41,5.5-6.36,8.26-8.83,8.26c-0.68,0-1.3-0.21-1.86-0.64c-1.28-0.9-1.92-2.43-1.92-4.61
	c0-4.18,1.81-8.43,5.44-12.74c2.05-2.39,4.56-3.95,7.55-4.67c0.81-0.21,1.58-0.32,2.3-0.32c1.96,0,3.63,0.68,4.99,2.05
	c0.43,0.47,0.55,0.92,0.38,1.34c-0.17,0.43-0.53,0.6-1.09,0.51c-0.47-1.54-1.49-2.3-3.07-2.3c-1.83,0-4.1,1.45-6.78,4.35
	c-1.54,1.71-2.97,3.71-4.29,6.02c-1.66,2.77-2.5,4.99-2.5,6.66s0.53,2.5,1.6,2.5c2.56,0,5.91-3.92,10.05-11.78
	c0.81-1.58,1.49-2.66,2.05-3.23c0.55-0.58,1.26-0.86,2.11-0.86c0.17,0,0.61,0.06,1.31,0.19c0.7,0.13,1.23,0.15,1.57,0.06
	C322.41,427.51,321.32,429.25,319.91,431.96z"/>
<path class="st1" d="M345.45,423.09c-5.25,9.22-7.87,15.23-7.87,18.05c0,1.11,0.41,1.66,1.22,1.66c2.18,0,5.1-3.69,8.77-11.07
	c0.26-0.6,0.51-0.83,0.77-0.7c0.26,0.13,0.38,0.3,0.38,0.51c0,0.21-0.09,0.47-0.26,0.77c-2.26,4.57-4.17,7.71-5.73,9.44
	s-3.12,2.59-4.67,2.59c-1.56,0-2.74-0.6-3.55-1.79c-0.43-0.55-0.64-1.31-0.64-2.27s0.21-2.12,0.64-3.49
	c0.43-1.37,1.6-3.58,3.52-6.66c0.47-0.77,0.7-1.38,0.7-1.82c0-0.45-0.36-0.67-1.09-0.67c-0.73,0-2.11,0.96-4.16,2.88
	c-3.07,2.82-6.04,7.04-8.9,12.67c-0.26,0.43-0.54,0.69-0.86,0.8s-0.95,0.18-1.89,0.22c-0.94,0.04-1.56,0.15-1.86,0.32
	c0.68-1.37,2.03-4.16,4.03-8.38c3.58-7.47,5.93-11.73,7.04-12.8c0.51-0.51,1.22-0.77,2.11-0.77c0.17,0,0.61,0.06,1.31,0.19
	s1.23,0.15,1.57,0.06c-1.58,0.85-4.16,4.86-7.74,12.03c2-2.47,3.83-4.45,5.47-5.92c1.64-1.47,3.62-2.84,5.92-4.1
	c2.3-1.26,3.99-1.89,5.06-1.89C345,422.97,345.23,423.01,345.45,423.09z"/>
<path class="st1" d="M353.06,442.87c0.55,0.09,0.94,0.13,1.15,0.13c1.71,0,3.39-1,5.06-3.01c0.9-1.11,2.5-3.9,4.8-8.38
	c0.08-0.21,0.23-0.32,0.45-0.32c0.38-0.04,0.58,0.11,0.58,0.45c0,0.09-0.1,0.33-0.29,0.74c-0.19,0.41-0.37,0.81-0.54,1.22
	c-0.17,0.41-0.45,0.99-0.83,1.76c-0.38,0.77-0.71,1.39-0.99,1.86c-0.28,0.47-0.63,1.05-1.06,1.73c-0.43,0.68-0.85,1.22-1.28,1.6
	l-1.34,1.41c-0.73,0.73-1.58,1.24-2.56,1.54c-1.58,0.51-3.12,0.55-4.61,0.13c-0.98,0.43-1.86,0.64-2.62,0.64
	c-3.03,0-4.86-1.19-5.5-3.58c-0.13-0.55-0.19-1.23-0.19-2.02c0-0.79,0.27-1.55,0.8-2.27c0.53-0.72,1.1-1.11,1.7-1.15
	c2.18-4.14,4.03-7.87,5.57-11.2c1.71-3.63,3.69-5.44,5.95-5.44c0.6,0,1.18,0.14,1.76,0.42c0.58,0.28,0.79,0.59,0.64,0.93
	c-0.15,0.34-0.46,0.41-0.93,0.19c-0.47-0.21-0.88-0.32-1.22-0.32c-0.34,0-0.64,0.06-0.9,0.19c-1.45,0.68-2.18,2.15-2.18,4.42
	c0,1.19,0.17,2.18,0.51,2.94c0.34,0.77,0.72,1.6,1.15,2.5c0.98,2.22,1.47,4.03,1.47,5.44c0,1.41-0.45,2.79-1.34,4.16
	C355.37,440.91,354.3,442.02,353.06,442.87z M346.09,440.69c0,0.26,0.02,0.53,0.06,0.83c0.34,1.15,1.13,1.73,2.37,1.73
	c0.51,0,0.94-0.08,1.28-0.26c-1.58-0.98-2.43-2.58-2.56-4.8C346.47,438.97,346.09,439.8,346.09,440.69z M350.89,442.42
	c1.88-1.45,2.82-3.8,2.82-7.04c0-1.32-0.15-3.14-0.45-5.44c-0.3-2.3-0.45-3.86-0.45-4.67c0-0.81,0.02-1.37,0.06-1.66
	c-3.24,6.49-5.25,10.43-6.02,11.84c0.9,0,1.34,0.64,1.34,1.92C348.2,439.88,349.09,441.57,350.89,442.42z"/>
<path class="st1" d="M380.13,431.96c-1.41,2.71-2.25,4.74-2.53,6.08c-0.28,1.34-0.42,2.43-0.42,3.26s0.32,1.25,0.96,1.25
	c0.81,0,1.81-0.75,3.01-2.24c1.75-2.18,3.48-5.01,5.18-8.51c0.17-0.38,0.36-0.6,0.58-0.64c0.34-0.13,0.51,0,0.51,0.38
	c0,0.21-0.06,0.47-0.19,0.77c-3.93,7.94-7.23,11.9-9.92,11.9c-1.24,0-2.24-0.6-3.01-1.79c-0.38-0.64-0.58-1.49-0.58-2.56
	c0-1.07,0.21-2.37,0.64-3.9c-3.41,5.5-6.36,8.26-8.83,8.26c-0.68,0-1.3-0.21-1.86-0.64c-1.28-0.9-1.92-2.43-1.92-4.61
	c0-4.18,1.81-8.43,5.44-12.74c2.05-2.39,4.56-3.95,7.55-4.67c0.81-0.21,1.58-0.32,2.3-0.32c1.96,0,3.63,0.68,4.99,2.05
	c0.43,0.47,0.55,0.92,0.38,1.34c-0.17,0.43-0.53,0.6-1.09,0.51c-0.47-1.54-1.49-2.3-3.07-2.3c-1.83,0-4.1,1.45-6.78,4.35
	c-1.54,1.71-2.97,3.71-4.29,6.02c-1.66,2.77-2.5,4.99-2.5,6.66s0.53,2.5,1.6,2.5c2.56,0,5.91-3.92,10.05-11.78
	c0.81-1.58,1.49-2.66,2.05-3.23c0.55-0.58,1.26-0.86,2.11-0.86c0.17,0,0.61,0.06,1.31,0.19c0.7,0.13,1.23,0.15,1.57,0.06
	C382.63,427.51,381.54,429.25,380.13,431.96z"/>
<path class="st1" d="M389.29,433.5c-0.34,1-0.63,1.96-0.86,2.88c-0.23,0.92-0.35,1.83-0.35,2.75c0,0.92,0.21,1.77,0.64,2.56
	c0.43,0.79,1.11,1.18,2.05,1.18c1.54,0,3.03-1.03,4.48-3.1c1.45-2.07,2.99-4.7,4.61-7.9c0.34-0.6,0.66-0.83,0.96-0.7
	c0.21,0.17,0.26,0.4,0.13,0.67c-0.13,0.28-0.4,0.88-0.8,1.79c-0.41,0.92-0.7,1.56-0.9,1.92c-0.19,0.36-0.53,1-1.02,1.92
	c-0.49,0.92-0.92,1.6-1.28,2.05c-0.36,0.45-0.85,1.02-1.47,1.73c-0.62,0.7-1.21,1.23-1.76,1.57c-1.49,0.94-2.9,1.41-4.22,1.41
	c-1.32,0-2.35-0.29-3.07-0.86c-0.73-0.58-1.16-1.19-1.31-1.86c-0.15-0.66-0.22-1.25-0.22-1.76c0-0.51,0.02-1.17,0.06-1.98
	c0.13-1.37,0.39-2.69,0.8-3.97c0.41-1.28,0.63-2,0.67-2.18c0.98-3.54,2.38-7.4,4.19-11.58c1.81-4.18,3.35-7.33,4.61-9.44
	c1.26-2.11,2.25-3.55,2.98-4.32c1.45-1.54,2.88-2.3,4.29-2.3c0.98,0,1.64,0.7,1.98,2.11c0.04,0.26,0.06,0.58,0.06,0.96
	c0,1.45-0.51,3.29-1.54,5.5c-3.67,8.15-8.04,14.55-13.12,19.2C389.82,431.91,389.63,432.49,389.29,433.5z M396.84,421.3
	c2.13-3.37,3.7-6.24,4.7-8.61c1-2.37,1.5-3.98,1.5-4.83c0-0.85-0.15-1.28-0.45-1.28c-0.43,0-1.24,0.84-2.43,2.53
	c-1.19,1.69-2.81,4.71-4.83,9.09c-2.03,4.37-3.68,8.2-4.96,11.49C392.55,427.47,394.7,424.67,396.84,421.3z"/>
<path class="st1" d="M411.56,421.69c3.11,0,4.67,1.96,4.67,5.89c0,1.79-0.47,3.71-1.41,5.76c-1.19,2.77-2.99,5.29-5.38,7.55
	c0.55,1.07,1.56,1.6,3.01,1.6c1.15,0,2.24-0.58,3.26-1.73c1.28-1.32,2.2-2.48,2.75-3.49c0.55-1,0.96-1.74,1.22-2.21
	c0.26-0.47,0.59-1.14,0.99-2.02c0.41-0.87,0.65-1.41,0.74-1.6c0.08-0.19,0.23-0.29,0.45-0.29c0.43-0.04,0.64,0.11,0.64,0.45
	c0,0.13-0.04,0.28-0.13,0.45l-0.38,0.9c-0.26,0.6-0.45,1.02-0.58,1.28s-0.35,0.71-0.67,1.38c-0.32,0.66-0.6,1.18-0.83,1.57
	c-0.24,0.38-0.56,0.9-0.96,1.54c-0.41,0.64-0.77,1.15-1.09,1.54c-0.32,0.38-0.71,0.81-1.18,1.28c-0.47,0.47-0.92,0.83-1.34,1.09
	c-1.07,0.64-2.07,0.96-3.01,0.96c-1.75,0-3.12-0.55-4.1-1.66c-1.96,1.45-3.78,2.18-5.44,2.18c-3.12,0-4.67-1.96-4.67-5.89
	c0-1.79,0.47-3.71,1.41-5.76c1.28-2.99,3.08-5.52,5.41-7.62C407.26,422.73,409.47,421.69,411.56,421.69z M412.26,423.67
	c-1.15,0-2.52,0.77-4.1,2.3c-1.58,1.54-2.99,3.63-4.22,6.27c-1.49,3.07-2.24,5.59-2.24,7.55c0,1.96,0.75,2.94,2.24,2.94
	c1.07,0,2.26-0.58,3.58-1.73c-0.68-0.98-1.02-2.03-1.02-3.14c0.08-1.83,0.83-2.75,2.24-2.75c0.55,0,1.01,0.19,1.38,0.58
	c0.36,0.38,0.54,0.74,0.54,1.06c0,0.32-0.04,0.65-0.13,0.99c0.72-1.07,1.56-2.58,2.5-4.54c1.07-2.18,1.6-4.31,1.6-6.4
	C414.63,424.72,413.84,423.67,412.26,423.67z"/>
<path class="st1" d="M440.68,423.09c-5.25,9.22-7.87,15.23-7.87,18.05c0,1.11,0.41,1.66,1.22,1.66c2.18,0,5.1-3.69,8.77-11.07
	c0.26-0.6,0.51-0.83,0.77-0.7c0.26,0.13,0.38,0.3,0.38,0.51c0,0.21-0.09,0.47-0.26,0.77c-2.26,4.57-4.17,7.71-5.73,9.44
	s-3.12,2.59-4.67,2.59c-1.56,0-2.74-0.6-3.55-1.79c-0.43-0.55-0.64-1.31-0.64-2.27s0.21-2.12,0.64-3.49
	c0.43-1.37,1.6-3.58,3.52-6.66c0.47-0.77,0.7-1.38,0.7-1.82c0-0.45-0.36-0.67-1.09-0.67c-0.73,0-2.11,0.96-4.16,2.88
	c-3.07,2.82-6.04,7.04-8.9,12.67c-0.26,0.43-0.54,0.69-0.86,0.8s-0.95,0.18-1.89,0.22c-0.94,0.04-1.56,0.15-1.86,0.32
	c0.68-1.37,2.03-4.16,4.03-8.38c3.58-7.47,5.93-11.73,7.04-12.8c0.51-0.51,1.22-0.77,2.11-0.77c0.17,0,0.61,0.06,1.31,0.19
	s1.23,0.15,1.57,0.06c-1.58,0.85-4.16,4.86-7.74,12.03c2-2.47,3.83-4.45,5.47-5.92c1.64-1.47,3.62-2.84,5.92-4.1
	c2.3-1.26,3.99-1.89,5.06-1.89C440.23,422.97,440.46,423.01,440.68,423.09z"/>
<path class="st1" d="M445.28,442.68c0.81,0,1.66-0.4,2.56-1.22c1.58-1.58,3.58-4.8,6.02-9.66c0.3-0.64,0.6-0.83,0.9-0.58
	c0.08,0.09,0.13,0.22,0.13,0.42c0,0.19-0.17,0.66-0.51,1.41c-0.34,0.75-0.65,1.42-0.93,2.02c-0.28,0.6-0.81,1.57-1.6,2.91
	c-0.79,1.34-1.5,2.38-2.14,3.1c-1.75,2.01-3.4,3.01-4.96,3.01s-2.68-0.47-3.36-1.41c-0.68-0.94-1.02-1.98-1.02-3.14
	s0.28-2.41,0.83-3.78l4.1-10.43c0.08-0.26,0.13-0.6,0.13-1.02c0-0.43-0.26-0.98-0.77-1.66l3.52-0.06c0.98,0,1.56,0.18,1.73,0.54
	c0.17,0.36,0.04,0.93-0.38,1.7l-5.12,11.97c-0.73,1.58-1.09,2.92-1.09,4.03C443.3,442.06,443.96,442.68,445.28,442.68z
	 M451.56,419.19c-0.6,0.51-1.26,0.77-1.98,0.77s-1.3-0.26-1.73-0.77c-0.43-0.51-0.6-1.13-0.51-1.86c0.13-0.73,0.49-1.34,1.09-1.86
	c0.6-0.51,1.26-0.77,1.98-0.77s1.31,0.26,1.76,0.77c0.45,0.51,0.61,1.13,0.48,1.86C452.52,418.06,452.15,418.68,451.56,419.19z"/>
</svg>
